# xmcd
#
# Track frame offsets: 
#        150
#        17441
#        40272
#        66749
#        91640
#        113095
#        141093
#        158932
#        186103
#        206011
#        214048
#        240841
#
# Disc length: 3689 seconds
#
# Revision: 6
# Processed by: cddbd v1.5.2PL0 Copyright (c) Steve Scherf et al.
# Submitted via: ExactAudioCopy v1.0b3
#
DISCID=9d0e670c
DTITLE=Tedeschi Trucks Band - Revelator
DYEAR=2011
DGENRE=Blues
TTITLE0=Come See About Me
TTITLE1=Don't Let Me Slide
TTITLE2=Midnight In Harlem
TTITLE3=Bound For Glory
TTITLE4=Simple Things
TTITLE5=Until You Remember
TTITLE6=Ball And Chain
TTITLE7=These Walls
TTITLE8=Learn How To Love
TTITLE9=Shrimp And Grits (Interlude)
TTITLE10=Love Has Something Else To Say
TTITLE11=Shelter
EXTD=© and (P) 2011 Sony Music Entertainment\nMasterworks 88883730662\n
EXTT0=
EXTT1=
EXTT2=
EXTT3=
EXTT4=
EXTT5=
EXTT6=
EXTT7=
EXTT8=
EXTT9=
EXTT10=
EXTT11=
PLAYORDER=
